<?xml version="1.0" encoding="UTF-8" standalone="no"?>
<!DOCTYPE svg PUBLIC "-//W3C//DTD SVG 1.1//EN" "http://www.w3.org/Graphics/SVG/1.1/DTD/svg11.dtd">
<svg width="100%" height="100%" viewBox="0 0 117 116" version="1.1" xmlns="http://www.w3.org/2000/svg" xmlns:xlink="http://www.w3.org/1999/xlink" xml:space="preserve" xmlns:serif="http://www.serif.com/" style="fill-rule:evenodd;clip-rule:evenodd;stroke-linejoin:round;stroke-miterlimit:1.41421;">
    <g transform="matrix(1,0,0,1,-52.2379,-9.9436)">
        <g transform="matrix(1,0,0,1,165.933,84.3636)">
            <path d="M0,-32.888C0.449,-31.933 0.658,-30.568 0.658,-28.592C0.658,-21.66 -3.727,-17.095 -11.328,-16.064C-11.834,-16.148 -15.09,-16.791 -16.926,-19.307C-18.172,-21.013 -18.516,-23.249 -17.947,-25.956L-17.442,-28.362L-19.483,-26.992C-21.261,-25.798 -23.279,-25.168 -25.32,-25.168C-30.65,-25.168 -34.449,-28.903 -37.885,-32.728L-39.607,-34.646L-39.629,-32.068C-39.656,-28.777 -40.309,-18.038 -47.518,-18.038C-51.044,-18.038 -54.791,-20.519 -54.791,-25.116C-54.791,-27.522 -53.342,-31.361 -52.645,-33.204C-52.237,-34.282 -52.16,-34.493 -52.16,-34.768C-52.16,-37.659 -55.283,-37.659 -56.311,-37.659C-58.204,-37.659 -59.861,-36.999 -61.363,-36.167C-61.365,-36.167 -61.367,-36.165 -61.369,-36.163C-62.154,-35.73 -62.898,-35.25 -63.607,-34.788C-65.348,-33.656 -66.965,-32.595 -68.523,-32.742C-70.772,-32.953 -72.912,-34.105 -74.697,-35.654C-74.799,-35.904 -74.993,-36.114 -75.266,-36.216C-75.284,-36.222 -75.303,-36.219 -75.322,-36.225C-77.828,-38.646 -79.49,-41.808 -79.49,-43.998C-79.49,-46.241 -78.505,-47.755 -76.561,-48.501L-75.802,-48.792L-75.931,-49.593C-76.026,-50.188 -76.074,-50.792 -76.074,-51.389C-76.074,-56.445 -72.651,-59.975 -67.749,-59.975C-67.188,-59.975 -66.612,-59.926 -66.038,-59.83L-64.998,-59.657L-64.88,-60.704C-64.216,-66.576 -58.165,-71.354 -51.393,-71.354C-48.723,-71.354 -46.47,-70.299 -44.697,-68.219L-43.926,-67.314L-43.167,-68.23C-40.764,-71.128 -37.972,-72.42 -34.115,-72.42C-26.791,-72.42 -20.711,-66.86 -19.972,-59.487L-19.898,-58.763L-19.187,-58.609C-8.227,-56.238 1.164,-45.263 1.164,-37.941C1.164,-36.81 0.82,-35.101 0.051,-33.833L-0.229,-33.374L0,-32.888ZM-18.943,35.161C-19.483,36.037 -20.431,36.786 -21.726,37.407C-21.738,37.297 -21.746,37.177 -21.746,37.045C-21.746,36.891 -21.738,36.741 -21.731,36.594C-21.724,36.442 -21.717,36.294 -21.717,36.153L-21.731,36.031C-23.605,28.58 -23.605,28.58 -23.617,28.561C-23.833,28.042 -24.084,27.522 -24.337,26.999C-24.911,25.811 -25.494,24.591 -25.687,23.294C-25.061,23.284 -24.437,23.28 -23.807,23.257C-23.793,23.301 -23.781,23.341 -23.768,23.387C-22.526,27.598 -20.811,32.439 -18.314,33.998C-18.526,34.436 -18.736,34.827 -18.943,35.161M-35.859,39.528C-32.252,36.144 -30.334,31.251 -30.334,25.244C-30.334,24.6 -30.368,23.932 -30.412,23.262C-29.992,23.278 -29.564,23.276 -29.142,23.286L-30.133,39.318C-31.877,39.469 -33.787,39.542 -35.859,39.528M-87.135,3.608C-86.824,3.833 -86.443,4.101 -86.02,4.394C-87.001,6.678 -87.361,8.38 -87.361,10.729C-87.361,12.009 -87.249,13.28 -87.141,14.51C-87.035,15.702 -86.926,16.936 -86.926,18.14C-86.926,20.352 -87.59,22.649 -87.986,24.022C-88.203,24.772 -88.299,25.112 -88.299,25.347C-88.299,25.497 -88.277,25.642 -88.265,25.79C-88.671,25.356 -88.988,24.926 -89.189,24.505C-90.686,21.362 -89.619,13.531 -87.135,3.608M-100.088,-1.782C-102.565,-2.432 -104.724,-0.837 -106.458,0.448C-107.592,1.286 -108.764,2.155 -109.488,1.966C-109.959,1.844 -110.459,1.231 -110.932,0.193C-112.143,-2.464 -111.88,-3.605 -110.525,-4.919C-109.206,-3.599 -107.539,-2.355 -105.532,-2.355C-103.155,-2.355 -102.301,-3.982 -101.547,-5.417C-101.396,-5.703 -101.244,-5.993 -101.08,-6.275C-98.408,-3.216 -91.295,-0.867 -88.286,0.02C-88.43,0.559 -88.572,1.095 -88.709,1.628C-88.709,1.63 -88.71,1.63 -88.71,1.632C-89.104,3.157 -89.471,4.657 -89.805,6.119C-91.973,3.694 -96.387,-0.808 -100.088,-1.782M-103.549,-11.454C-102.749,-12.495 -102.331,-13.853 -102.181,-15.458C-99.465,-18.173 -92.359,-27.076 -92.359,-29.703C-92.359,-29.967 -92.399,-30.28 -92.447,-30.641C-92.509,-31.101 -92.578,-31.621 -92.578,-32.229C-92.578,-33.396 -92.365,-34.519 -92.159,-35.604C-91.954,-36.685 -91.742,-37.802 -91.742,-38.956C-91.742,-41.564 -92.508,-45.132 -94.15,-48.083C-92.401,-46.941 -90.608,-45.515 -88.874,-43.984C-87.829,-42.038 -87.221,-39.781 -87.221,-37.782C-87.221,-36.624 -87.418,-35.57 -87.801,-34.63C-87.835,-34.632 -87.871,-34.644 -87.904,-34.646C-88.896,-34.685 -89.756,-34.262 -90.392,-33.415C-92.231,-30.962 -91.535,-27.742 -90.861,-24.626C-90.744,-24.085 -90.63,-23.54 -90.523,-22.993C-95.16,-22.378 -97.908,-17.427 -97.908,-12.703C-97.908,-12.554 -97.895,-12.409 -97.891,-12.261C-100.238,-11.563 -102.543,-10.63 -102.074,-8.13C-102.012,-7.795 -101.879,-7.466 -101.699,-7.144C-101.968,-6.729 -102.211,-6.304 -102.433,-5.882C-103.174,-4.47 -103.76,-3.355 -105.532,-3.355C-107.176,-3.355 -108.579,-4.386 -109.777,-5.583C-109.463,-5.846 -109.117,-6.122 -108.734,-6.425C-107.23,-7.617 -105.36,-9.101 -103.549,-11.454M-98.961,-39.18C-98.961,-44.156 -102.857,-45.231 -105.463,-45.933C-105.252,-46.907 -104.917,-47.77 -104.461,-48.518C-99.494,-46.527 -96.815,-40.652 -96.815,-35.912C-96.815,-31.353 -99.927,-27.548 -103.145,-25.256C-103.373,-26.451 -103.622,-27.679 -103.879,-28.941C-103.934,-29.205 -103.988,-29.474 -104.042,-29.741C-101.778,-32.253 -98.961,-35.576 -98.961,-39.18M-105.777,-41.626C-104.506,-41.14 -103.385,-40.238 -103.385,-39.039C-103.385,-38.046 -104.225,-36.808 -105.196,-35.949C-105.508,-37.921 -105.727,-39.842 -105.777,-41.626M-105.011,-34.808C-103.656,-35.817 -102.385,-37.542 -102.385,-39.039C-102.385,-40.853 -103.999,-42.123 -105.785,-42.695C-105.774,-43.48 -105.727,-44.234 -105.631,-44.943C-103.068,-44.251 -99.961,-43.343 -99.961,-39.18C-99.961,-36.192 -102.242,-33.279 -104.289,-30.966C-104.544,-32.243 -104.792,-33.531 -105.011,-34.808M-100.564,-50.699C-99.221,-50.624 -97.72,-50.096 -96.145,-49.267C-93.823,-46.288 -92.742,-41.96 -92.742,-38.956C-92.742,-37.896 -92.936,-36.872 -93.142,-35.79C-93.356,-34.659 -93.578,-33.491 -93.578,-32.229C-93.578,-31.556 -93.501,-30.976 -93.439,-30.509C-93.397,-30.199 -93.359,-29.93 -93.359,-29.703C-93.359,-27.613 -99.309,-20.07 -102.121,-16.95C-102.119,-19.064 -102.457,-21.51 -102.943,-24.175C-99.383,-26.583 -95.815,-30.794 -95.815,-35.912C-95.815,-40.911 -98.625,-47.107 -103.848,-49.353C-103.774,-49.436 -103.713,-49.53 -103.635,-49.608C-102.831,-50.411 -101.824,-50.759 -100.564,-50.699M-82.463,-37.693C-82.485,-37.394 -82.609,-37.079 -82.754,-36.745C-82.945,-36.304 -83.162,-35.804 -83.162,-35.227C-83.162,-33.968 -81.592,-30.328 -78.596,-30.328C-78.566,-30.328 -78.536,-30.337 -78.508,-30.337C-78.854,-29.381 -79.213,-28.388 -79.58,-27.357C-81.212,-29.708 -84.139,-33.441 -86.816,-34.402C-86.424,-35.423 -86.221,-36.554 -86.221,-37.782C-86.221,-39.255 -86.516,-40.815 -87.05,-42.318C-85.391,-40.754 -83.828,-39.156 -82.463,-37.693M-78.129,-31.375C-80.697,-30.972 -82.162,-34.337 -82.162,-35.227C-82.162,-35.597 -82.004,-35.962 -81.836,-36.348C-81.77,-36.499 -81.707,-36.654 -81.648,-36.812C-79.781,-34.771 -78.384,-33.108 -77.768,-32.361C-77.886,-32.04 -78.008,-31.707 -78.129,-31.375M-74.723,-33.109C-75.025,-32.974 -75.298,-32.798 -75.549,-32.597C-75.439,-32.894 -75.328,-33.189 -75.219,-33.485C-75.053,-33.359 -74.892,-33.228 -74.723,-33.109M-70.069,-30.97C-68.971,-29.502 -68.387,-27.64 -68.387,-25.569C-68.387,-24.304 -68.614,-23.032 -69.033,-21.835C-69.926,-22.419 -70.75,-22.986 -71.509,-23.531C-71.369,-24.167 -71.211,-25.095 -71.211,-26.057C-71.211,-28.998 -72.729,-29.438 -73.633,-29.438C-75.086,-29.438 -75.731,-28.47 -76.267,-27.3C-76.655,-27.645 -76.957,-27.923 -77.177,-28.133C-76.97,-28.708 -76.762,-29.282 -76.553,-29.857C-76.491,-29.944 -76.429,-30.028 -76.367,-30.116C-75.598,-31.212 -74.869,-32.245 -73.602,-32.388C-72.493,-31.745 -71.309,-31.251 -70.069,-30.97M-66.691,-20.376C-67.203,-20.683 -67.696,-20.987 -68.174,-21.288C-67.667,-22.656 -67.387,-24.115 -67.387,-25.569C-67.387,-27.493 -67.852,-29.261 -68.729,-30.753C-68.723,-30.751 -68.717,-30.75 -68.711,-30.749C-66.545,-30.548 -64.652,-31.726 -62.677,-33.009L-66.691,-20.376ZM-56.791,-25.116C-56.791,-23.847 -56.538,-22.648 -56.078,-21.561C-56.331,-21.164 -56.592,-20.654 -56.588,-19.999C-56.563,-19.775 -56.439,-18.603 -56.439,-17.659C-56.439,-16.871 -56.514,-16.115 -56.65,-15.353C-57.895,-15.861 -59.091,-16.386 -60.232,-16.925C-60.275,-17.521 -60.401,-18.095 -60.528,-18.654C-60.677,-19.304 -60.817,-19.919 -60.817,-20.534C-60.817,-21.62 -60.101,-22.752 -59.342,-23.95C-58.498,-25.282 -57.542,-26.791 -57.427,-28.531C-57.273,-30.833 -57.003,-33.441 -55.91,-35.648C-54.341,-35.593 -54.176,-35.218 -54.162,-34.873C-54.22,-34.695 -54.376,-34.282 -54.516,-33.911C-55.311,-31.806 -56.791,-27.887 -56.791,-25.116M-51.721,-15.23C-51.689,-14.841 -51.657,-14.453 -51.657,-14.066C-51.657,-13.874 -51.666,-13.697 -51.684,-13.527C-53.074,-13.983 -54.419,-14.463 -55.707,-14.97C-55.532,-15.859 -55.439,-16.74 -55.439,-17.659C-55.439,-18.63 -55.558,-19.781 -55.592,-20.065C-55.592,-20.193 -55.563,-20.328 -55.514,-20.471C-54.629,-18.992 -53.332,-17.794 -51.76,-17.02C-51.775,-16.836 -51.786,-16.654 -51.786,-16.47C-51.786,-16.057 -51.754,-15.644 -51.721,-15.23M-46.382,-12.013C-47.875,-12.379 -49.325,-12.779 -50.721,-13.214C-50.683,-13.484 -50.657,-13.761 -50.657,-14.066C-50.657,-14.48 -50.689,-14.895 -50.724,-15.31C-50.754,-15.697 -50.786,-16.083 -50.786,-16.47C-50.786,-16.516 -50.781,-16.562 -50.779,-16.607C-49.768,-16.245 -48.673,-16.038 -47.518,-16.038C-46.994,-16.038 -46.494,-16.097 -46.006,-16.183L-46.382,-12.013ZM-42.346,-11.135C-43.045,-11.265 -43.734,-11.406 -44.415,-11.554L-43.938,-16.856C-43.037,-17.3 -42.221,-17.919 -41.5,-18.711C-41.666,-16.667 -42.07,-13.228 -42.346,-11.135M-34.559,-26.683C-32.557,-22.508 -30.536,-17.697 -30.536,-12.618C-30.536,-11.716 -30.623,-10.824 -30.751,-9.942C-31.256,-9.954 -31.763,-9.964 -32.262,-9.986C-32.407,-10.523 -32.682,-11.725 -32.95,-12.903C-34.668,-20.441 -34.899,-20.752 -35.514,-20.752L-35.737,-20.73L-35.86,-20.652C-38.607,-18.904 -38.793,-15.74 -38.955,-12.949C-39.004,-12.127 -39.065,-11.355 -39.167,-10.614C-39.91,-10.718 -40.638,-10.84 -41.362,-10.964C-41.008,-13.648 -40.423,-18.622 -40.423,-20.057L-40.423,-20.137C-38.952,-22.437 -38.018,-25.636 -37.727,-29.611C-36.723,-28.567 -35.676,-27.57 -34.559,-26.683M-27.961,-9.929C-28.558,-9.921 -29.158,-9.906 -29.745,-9.911C-29.621,-10.805 -29.536,-11.707 -29.536,-12.618C-29.536,-17.245 -31.127,-21.605 -32.898,-25.49C-31.402,-24.53 -29.773,-23.801 -27.961,-23.435L-27.961,-9.929ZM-22.889,-23.426C-22.875,-23.2 -22.85,-22.978 -22.85,-22.748C-22.85,-21.074 -23.229,-19.406 -23.564,-17.935C-23.828,-16.771 -24.057,-15.765 -24.057,-14.949C-24.057,-13.22 -23.385,-11.618 -22.674,-10.166C-23.785,-10.074 -24.879,-10.011 -25.961,-9.967L-25.961,-23.191C-25.748,-23.181 -25.537,-23.168 -25.32,-23.168C-24.502,-23.168 -23.689,-23.261 -22.889,-23.426M-15.82,-15.439C-16.037,-13.836 -16.249,-12.316 -16.986,-10.868C-17.174,-10.839 -17.361,-10.81 -17.549,-10.782C-17.628,-10.839 -17.721,-10.879 -17.828,-10.883C-17.888,-10.885 -17.943,-10.876 -17.996,-10.859C-18.482,-11.474 -19.485,-13.413 -19.485,-15.812C-19.485,-16.894 -19.355,-18.019 -19.209,-19.199C-18.948,-18.7 -18.637,-18.227 -18.273,-17.781C-17.537,-16.872 -16.666,-16.179 -15.791,-15.646C-15.801,-15.578 -15.812,-15.507 -15.82,-15.439M-12.409,-11.712C-13.553,-11.466 -14.686,-11.242 -15.804,-11.05C-15.244,-12.399 -15.036,-13.782 -14.854,-15.134C-13.899,-14.668 -13.004,-14.384 -12.348,-14.228C-12.367,-13.377 -12.387,-12.534 -12.409,-11.712M-13.17,4.699C-13.729,2.809 -14.6,0.885 -15.944,-0.835C-14.906,-1.019 -13.858,-1.23 -12.803,-1.458C-12.913,0.712 -13.035,2.762 -13.17,4.699M-26.027,0.286C-24.027,0.192 -21.987,0.018 -19.908,-0.242C-24.35,6.033 -25.268,9.58 -25.279,13.613C-25.859,13.641 -26.428,13.65 -27.002,13.667L-26.027,0.286ZM-32.345,4.952C-33.08,3.374 -33.775,1.868 -34.104,0.237C-32.644,0.321 -31.166,0.378 -29.654,0.378C-29.119,0.378 -28.578,0.366 -28.038,0.355L-29.01,13.716C-29.502,13.718 -29.982,13.704 -30.469,13.698C-30.362,13.135 -30.29,12.563 -30.29,11.977C-30.29,9.359 -31.334,7.118 -32.345,4.952M-45.242,6.607C-44.436,3.243 -43.779,0.551 -42.621,-0.726C-41.58,-0.55 -40.52,-0.394 -39.445,-0.256C-39.873,0.571 -40.464,1.438 -41.133,2.395C-42.863,4.872 -44.959,7.909 -45.345,12.218C-45.773,12.136 -46.198,12.051 -46.621,11.963C-46.069,10.034 -45.631,8.226 -45.242,6.607M-45.688,-1.304C-45.047,-1.169 -44.401,-1.038 -43.746,-0.917C-44.822,0.618 -45.434,3.116 -46.215,6.374C-46.604,8.001 -47.046,9.818 -47.601,11.75C-47.982,11.667 -48.372,11.589 -48.749,11.501L-45.688,-1.304ZM-50.129,-2.376C-49.313,-2.154 -48.482,-1.945 -47.64,-1.745L-50.689,11.012C-53.229,10.354 -55.653,9.61 -57.938,8.797C-54.696,8.143 -52.27,3.077 -50.129,-2.376M-60.184,-0.919C-60.047,-0.031 -59.906,0.887 -59.906,1.79C-59.906,1.942 -59.911,2.094 -59.92,2.279C-59.92,2.765 -59.287,3.16 -58.874,3.16C-57.932,3.16 -55.053,-3.304 -55.053,-3.773C-55.053,-3.808 -55.055,-3.842 -55.055,-3.877C-53.773,-3.441 -52.46,-3.023 -51.101,-2.636C-52.47,0.848 -55.262,7.872 -58.646,7.872C-61.02,7.872 -62.218,-2.759 -62.218,-4.918C-62.218,-5.402 -62.186,-5.896 -62.155,-6.388C-62.149,-6.476 -62.149,-6.562 -62.145,-6.65C-61.501,-6.365 -60.843,-6.081 -60.172,-5.803C-60.354,-5.155 -60.468,-4.48 -60.468,-3.732C-60.468,-2.777 -60.323,-1.832 -60.184,-0.919M-56.064,-4.226C-56.063,-4.201 -56.063,-4.179 -56.063,-4.154C-56.058,-4.029 -56.053,-3.9 -56.053,-3.773C-56.054,-3.136 -58.069,0.624 -58.907,1.9C-58.907,1.864 -58.906,1.827 -58.906,1.79C-58.906,0.811 -59.053,-0.145 -59.195,-1.07C-59.335,-1.988 -59.468,-2.853 -59.468,-3.732C-59.468,-4.345 -59.378,-4.898 -59.239,-5.427C-58.211,-5.013 -57.153,-4.612 -56.064,-4.226M-65.107,5.878C-65.699,2.686 -66.25,-0.34 -66.25,-3.504C-66.25,-4.802 -66.11,-6.332 -66.051,-6.986C-66.031,-7.199 -66.02,-7.335 -66.02,-7.368C-66.02,-7.75 -66.053,-8.144 -66.101,-8.536C-65.148,-8.052 -64.154,-7.573 -63.126,-7.099C-63.137,-6.882 -63.14,-6.669 -63.153,-6.451C-63.186,-5.938 -63.218,-5.422 -63.218,-4.918C-63.218,-4.802 -62.773,4.821 -60.304,7.92C-61.985,7.264 -63.586,6.579 -65.107,5.878M-67.567,-9.296C-67.445,-9.231 -67.318,-9.165 -67.194,-9.101C-67.102,-8.515 -67.02,-7.921 -67.02,-7.38C-67.021,-7.341 -67.032,-7.234 -67.047,-7.076C-67.107,-6.409 -67.25,-4.848 -67.25,-3.504C-67.25,-0.49 -66.767,2.37 -66.22,5.348C-67.962,4.514 -69.595,3.667 -71.107,2.822L-67.567,-9.296ZM-76.104,-0.9C-76.172,-1.184 -76.264,-1.573 -76.264,-2.404C-76.264,-4.206 -75.62,-5.728 -75.051,-7.072C-74.564,-8.223 -74.104,-9.31 -74.104,-10.411C-74.104,-11.386 -74.302,-12.42 -74.502,-13.428C-73,-12.431 -71.285,-11.366 -69.363,-10.282L-72.892,1.797C-74.018,1.132 -75.067,0.478 -76.041,-0.157C-76.003,-0.407 -76.036,-0.618 -76.104,-0.9M-81.522,-4.072C-81.531,-4.092 -81.527,-4.117 -81.539,-4.136C-81.13,-5.491 -80.533,-6.038 -79.904,-6.615C-78.876,-7.556 -77.813,-8.531 -77.813,-12.545C-77.813,-13.005 -77.824,-13.47 -77.836,-13.937C-77.848,-14.396 -77.859,-14.857 -77.859,-15.314C-77.859,-15.483 -77.852,-15.62 -77.849,-15.775C-77.198,-15.291 -76.47,-14.769 -75.67,-14.218C-75.619,-13.945 -75.57,-13.673 -75.515,-13.392C-75.313,-12.382 -75.104,-11.338 -75.104,-10.411C-75.104,-9.513 -75.507,-8.562 -75.973,-7.462C-76.578,-6.031 -77.264,-4.409 -77.264,-2.404C-77.264,-1.632 -77.19,-1.183 -77.122,-0.87C-78.885,-2.06 -80.354,-3.152 -81.522,-4.072M-80.689,-18.013C-80.209,-17.609 -79.59,-17.105 -78.822,-16.511C-78.845,-16.147 -78.859,-15.759 -78.859,-15.314C-78.859,-14.848 -78.848,-14.379 -78.836,-13.911C-78.824,-13.453 -78.813,-12.997 -78.813,-12.545C-78.813,-8.97 -79.632,-8.22 -80.579,-7.351C-81.202,-6.781 -81.895,-6.14 -82.383,-4.761C-83.297,-5.508 -83.963,-6.094 -84.355,-6.453C-83.24,-10.195 -82.004,-14.08 -80.689,-18.013M-34.277,13.569C-34.346,13.436 -34.465,13.333 -34.617,13.302C-37.352,10.018 -37.349,9.954 -37.299,8.659C-37.264,7.757 -37.211,6.395 -37.75,3.52L-37.861,2.922L-38.427,3.147C-39.27,3.485 -40.254,4.223 -40.254,5.197L-40.227,5.553C-40.143,6.462 -40.057,7.402 -40.057,8.306C-40.057,10.393 -40.548,11.816 -41.629,12.837C-42.551,12.702 -43.457,12.554 -44.354,12.394C-44.006,8.294 -41.984,5.358 -40.313,2.968C-39.541,1.863 -38.854,0.866 -38.391,-0.12C-37.322,0.001 -36.236,0.1 -35.137,0.178C-34.804,2.04 -34.017,3.731 -33.251,5.374C-32.242,7.538 -31.29,9.581 -31.29,11.977C-31.29,12.561 -31.366,13.13 -31.483,13.685C-32.427,13.663 -33.355,13.622 -34.277,13.569M-39.23,5.462L-39.254,5.197C-39.254,4.946 -38.997,4.63 -38.613,4.371C-38.223,6.683 -38.268,7.835 -38.298,8.62C-38.358,10.19 -38.281,10.45 -35.762,13.489C-37.359,13.371 -38.913,13.198 -40.443,12.999C-39.238,11.492 -39.057,9.661 -39.057,8.306C-39.057,7.356 -39.145,6.393 -39.23,5.462M-21.244,13.327C-19.807,6.831 -18.91,6.471 -18.819,6.453C-18.083,6.659 -17.324,11.297 -17.256,12.858C-18.602,13.047 -19.931,13.202 -21.244,13.327M-13.805,12.297C-14.634,12.446 -15.456,12.581 -16.273,12.704C-16.385,11.214 -16.932,5.643 -18.712,5.459C-19.65,5.36 -20.738,6.29 -22.284,13.405C-22.952,13.46 -23.619,13.514 -24.278,13.553C-24.257,9.594 -23.283,6.087 -18.554,-0.415C-18.072,-0.484 -17.585,-0.566 -17.1,-0.645C-14.777,2.084 -13.807,5.452 -13.443,8.329C-13.558,9.716 -13.679,11.038 -13.805,12.297M-38.176,-10.493C-38.07,-11.279 -38.004,-12.089 -37.957,-12.89C-37.803,-15.541 -37.655,-18.054 -35.67,-19.567C-35.23,-18.407 -34.397,-14.753 -33.925,-12.681C-33.64,-11.429 -33.449,-10.594 -33.304,-10.039C-34.97,-10.137 -36.592,-10.292 -38.176,-10.493M-66.869,-18.163C-66.754,-18.034 -66.617,-17.923 -66.439,-17.867C-66.398,-17.854 -66.357,-17.855 -66.316,-17.847C-63.615,-16.304 -60.512,-14.755 -57.025,-13.349C-56.97,-13.219 -56.865,-13.111 -56.719,-13.066C-56.67,-13.051 -56.62,-13.044 -56.571,-13.044C-56.512,-13.044 -56.463,-13.078 -56.408,-13.097C-53.247,-11.855 -49.775,-10.746 -46.025,-9.87C-45.895,-9.786 -45.75,-9.724 -45.585,-9.708C-45.555,-9.706 -45.524,-9.704 -45.494,-9.704C-45.463,-9.704 -45.435,-9.718 -45.403,-9.722C-44.457,-9.509 -43.494,-9.31 -42.512,-9.13C-42.439,-9.017 -42.326,-8.932 -42.184,-8.906C-42.152,-8.9 -42.122,-8.897 -42.092,-8.897C-41.975,-8.897 -41.865,-8.939 -41.778,-9.008C-37.782,-8.316 -33.511,-7.904 -28.964,-7.904C-28.327,-7.904 -27.684,-7.913 -27.035,-7.929C-27.01,-7.927 -26.987,-7.914 -26.961,-7.914C-26.931,-7.914 -26.905,-7.929 -26.876,-7.931C-22.324,-8.055 -17.513,-8.597 -12.471,-9.648C-12.537,-7.519 -12.615,-5.476 -12.703,-3.534C-49.932,4.792 -76.267,-16.773 -80.001,-20.056C-79.318,-22.064 -78.619,-24.078 -77.907,-26.087C-76.15,-24.501 -72.399,-21.384 -66.869,-18.163M-72.398,-24.181C-73.642,-25.103 -74.673,-25.933 -75.477,-26.617C-74.943,-27.841 -74.563,-28.438 -73.633,-28.438C-73.281,-28.438 -72.211,-28.438 -72.211,-26.057C-72.211,-25.384 -72.302,-24.71 -72.398,-24.181M-96.517,-10.578C-93.555,-11.421 -89.869,-12.472 -88.647,-15.986C-87.599,-19.001 -88.294,-22.214 -88.906,-25.049C-89.538,-27.97 -90.084,-30.492 -88.792,-32.214C-88.492,-32.615 -88.22,-32.656 -87.99,-32.648C-86.076,-32.566 -82.514,-28.261 -80.413,-25.005C-82.867,-18.015 -85.588,-9.769 -87.761,-1.909C-92.947,-3.449 -99.697,-6.306 -100.109,-8.499C-100.27,-9.355 -99.352,-9.769 -96.517,-10.578M-93.658,-13.665C-93.754,-14.019 -93.807,-14.386 -93.807,-14.766C-93.807,-16.657 -92.387,-18.943 -90.623,-18.943C-90.461,-18.943 -90.295,-18.911 -90.129,-18.88C-90.168,-18.116 -90.285,-17.365 -90.536,-16.644C-91.038,-15.201 -92.237,-14.31 -93.658,-13.665M-96.908,-12.703C-96.908,-16.993 -94.465,-21.488 -90.347,-22.007C-90.23,-21.292 -90.148,-20.582 -90.122,-19.88C-90.289,-19.904 -90.457,-19.943 -90.623,-19.943C-93.018,-19.943 -94.807,-17.21 -94.807,-14.766C-94.807,-14.253 -94.727,-13.759 -94.585,-13.284C-95.345,-13.003 -96.133,-12.767 -96.902,-12.548C-96.902,-12.6 -96.908,-12.65 -96.908,-12.703M-41.682,31.868L-41.447,32.145L-41.171,32.145C-40.215,32.145 -36.868,25.229 -36.868,23.829C-36.868,23.52 -36.883,23.21 -36.898,22.907C-36.899,22.87 -36.9,22.837 -36.901,22.8C-35.688,22.928 -34.457,23.031 -33.216,23.114C-33.191,23.345 -33.158,23.576 -33.158,23.809C-33.158,28.251 -38.998,37.38 -40.682,38.948C-42.66,34.63 -45.47,23.608 -45.47,22.372C-45.47,22.075 -45.441,21.79 -45.398,21.509C-44.807,21.626 -44.208,21.735 -43.607,21.841C-43.613,21.969 -43.615,22.093 -43.622,22.224C-43.639,22.526 -43.656,22.835 -43.656,23.14C-43.656,23.965 -42.449,30.675 -41.682,31.868M-37.906,22.678C-37.902,22.772 -37.901,22.86 -37.896,22.956C-37.883,23.243 -37.868,23.536 -37.868,23.829C-37.868,25.143 -40.105,29.237 -41.091,30.737C-41.73,28.841 -42.656,23.75 -42.656,23.14C-42.656,22.853 -42.64,22.563 -42.624,22.28C-42.619,22.19 -42.618,22.106 -42.613,22.018C-41.073,22.275 -39.5,22.491 -37.906,22.678M-52.844,31.775C-52.111,33.827 -51.39,36.042 -50.925,37.473C-50.807,37.837 -50.718,38.109 -50.645,38.332C-51.822,38.165 -53,37.985 -54.174,37.79L-52.844,31.775ZM-65.953,15.231C-64.6,15.794 -63.202,16.35 -61.75,16.887C-61.898,17.036 -62.109,17.225 -62.3,17.393C-63.045,18.051 -64.135,19.011 -64.946,20.401C-65.07,18.704 -65.471,17.132 -65.859,15.608C-65.891,15.483 -65.922,15.356 -65.953,15.231M-67.105,14.744C-67.016,15.116 -66.922,15.485 -66.828,15.855C-66.407,17.505 -66.011,19.065 -65.924,20.794C-65.885,21.588 -65.311,21.628 -65.197,21.628C-65.116,21.628 -65.042,21.615 -64.969,21.596L-64.618,21.94L-64.311,21.326C-63.573,19.849 -62.455,18.863 -61.638,18.143C-61.225,17.778 -60.932,17.507 -60.761,17.241C-59.674,17.632 -58.564,18.012 -57.428,18.382C-58.887,20.142 -63.995,25.824 -67.664,29.865C-67.824,29.303 -67.752,27.862 -67.707,26.948C-67.676,26.338 -67.645,25.723 -67.645,25.166C-67.645,24.038 -67.764,22.579 -68.688,21.308C-70.039,19.45 -70.17,17.547 -70.309,15.532C-70.361,14.765 -70.42,13.981 -70.55,13.202C-69.446,13.718 -68.295,14.233 -67.105,14.744M-76.796,20.933C-76.299,22.375 -75.658,23.732 -75.018,25.051C-74.509,26.102 -73.98,27.19 -73.558,28.284C-73.26,29.052 -73.153,29.9 -73.04,30.797C-72.927,31.692 -72.807,32.604 -72.49,33.465C-74.963,32.688 -77.264,31.87 -79.317,31.028L-76.796,20.933ZM-78.124,17.999L-79.431,23.227C-79.836,22.462 -80.355,21.829 -80.807,21.278C-81.402,20.553 -81.917,19.926 -81.917,19.328C-81.917,18.968 -81.832,18.573 -81.741,18.155C-81.639,17.678 -81.531,17.186 -81.531,16.67C-81.531,15.643 -81.909,15.153 -82.242,14.719C-82.62,14.228 -83.01,13.721 -83.01,12.133C-83.01,11.439 -82.922,10.723 -82.837,10.031C-82.751,9.325 -82.661,8.594 -82.661,7.872C-82.661,7.387 -82.701,6.946 -82.783,6.532C-82.045,6.999 -81.237,7.493 -80.365,8.01C-80.751,9.266 -80.961,10.536 -80.961,11.728C-80.961,14.384 -79.977,16.546 -78.124,17.999M-77.852,16.911C-79.566,15.348 -79.961,13.264 -79.961,11.728C-79.961,10.706 -79.798,9.616 -79.485,8.53C-78.473,9.118 -77.381,9.729 -76.215,10.356L-77.852,16.911ZM-86.969,26.948C-87.178,26.463 -87.299,25.919 -87.299,25.35C-87.293,25.226 -87.15,24.734 -87.025,24.3C-86.614,22.876 -85.926,20.493 -85.926,18.14C-85.926,16.891 -86.037,15.636 -86.145,14.422C-86.251,13.215 -86.361,11.966 -86.361,10.729C-86.361,8.594 -86.041,7.026 -85.179,4.969C-84.836,5.202 -84.467,5.446 -84.071,5.705C-84.064,5.738 -84.064,5.772 -84.05,5.803C-83.785,6.41 -83.661,7.067 -83.661,7.872C-83.661,8.534 -83.743,9.202 -83.83,9.909C-83.918,10.632 -84.01,11.378 -84.01,12.133C-84.01,14.061 -83.47,14.763 -83.035,15.329C-82.732,15.723 -82.531,15.984 -82.531,16.67C-82.531,17.08 -82.623,17.499 -82.719,17.943C-82.816,18.394 -82.917,18.86 -82.917,19.328C-82.917,20.286 -82.268,21.076 -81.58,21.913C-80.899,22.741 -80.141,23.682 -79.856,24.934L-81.178,30.224C-83.574,29.144 -85.55,28.04 -86.969,26.948M-71.174,33.872C-71.739,32.942 -71.9,31.841 -72.048,30.672C-72.164,29.755 -72.283,28.805 -72.625,27.922C-73.063,26.79 -73.6,25.684 -74.119,24.614C-74.981,22.838 -75.852,20.997 -76.311,18.993L-74.393,11.314C-73.525,11.76 -72.617,12.21 -71.682,12.661C-71.451,13.604 -71.377,14.577 -71.306,15.601C-71.164,17.669 -71.017,19.805 -69.496,21.896C-68.9,22.718 -68.645,23.694 -68.645,25.166C-68.645,25.708 -68.676,26.305 -68.705,26.898C-68.806,28.912 -68.84,30.176 -68.289,30.755C-68.106,30.946 -67.871,31.047 -67.609,31.047L-67.388,31.047L-67.238,30.883C-63.613,26.894 -57.783,20.44 -56.422,18.703C-55.071,19.126 -53.685,19.527 -52.268,19.908L-52.93,22.901C-55.181,23.849 -56.451,25.679 -57.674,27.46C-58.523,28.696 -59.326,29.864 -60.422,30.694C-61.063,31.18 -61.773,31.612 -62.526,32.069C-63.93,32.921 -65.373,33.802 -66.581,35.153C-68.158,34.744 -69.695,34.316 -71.174,33.872M-65.457,35.44C-64.416,34.406 -63.2,33.647 -62.008,32.924C-61.232,32.453 -60.5,32.008 -59.817,31.491C-58.594,30.563 -57.707,29.272 -56.85,28.026C-55.798,26.495 -54.789,25.042 -53.205,24.145L-56.145,37.446C-59.332,36.868 -62.463,36.189 -65.457,35.44M-49.539,38.484C-49.633,38.21 -49.799,37.7 -49.974,37.164C-50.555,35.376 -51.533,32.374 -52.444,29.968L-50.331,20.407C-50.171,20.448 -50.01,20.487 -49.85,20.526C-49.923,21.065 -49.974,21.614 -49.974,22.177C-49.974,23.454 -47.715,35.788 -46.863,38.813C-47.754,38.713 -48.646,38.603 -49.539,38.484M-45.78,38.933C-46.344,37.704 -48.974,23.29 -48.974,22.177C-48.974,21.688 -48.934,21.223 -48.876,20.765C-48.053,20.958 -47.218,21.137 -46.377,21.311C-46.433,21.657 -46.47,22.007 -46.47,22.372C-46.47,23.957 -43.564,34.983 -41.62,39.296C-42.994,39.2 -44.383,39.079 -45.78,38.933M-31.334,25.244C-31.334,31.393 -33.414,36.307 -37.332,39.5C-38.12,39.479 -38.924,39.452 -39.754,39.409C-37.184,36.821 -32.158,28.007 -32.158,23.809C-32.158,23.594 -32.193,23.382 -32.211,23.167C-31.945,23.182 -31.681,23.197 -31.414,23.21C-31.367,23.897 -31.334,24.583 -31.334,25.244M-22.662,37.81C-24.133,38.378 -25.966,38.807 -28.115,39.095L-27.141,23.321C-26.993,23.321 -26.843,23.313 -26.695,23.312C-26.503,24.801 -25.864,26.136 -25.237,27.433C-24.992,27.94 -24.749,28.442 -24.562,28.878C-24.543,28.954 -22.896,35.505 -22.717,36.214C-22.719,36.319 -22.725,36.43 -22.73,36.546C-22.738,36.708 -22.746,36.875 -22.746,37.045C-22.746,37.278 -22.723,37.542 -22.662,37.81M-14.813,20.426C-52.393,25.841 -82.371,4.684 -86.6,1.52C-86.435,0.893 -86.264,0.257 -86.09,-0.385C-86.088,-0.391 -86.084,-0.395 -86.082,-0.401C-86.08,-0.406 -86.082,-0.411 -86.081,-0.415C-85.732,-1.697 -85.363,-3.005 -84.979,-4.333C-79.974,0.018 -59.801,15.723 -29.478,15.723C-29.055,15.723 -28.626,15.715 -28.199,15.708C-28.183,15.71 -28.17,15.719 -28.153,15.721C-28.129,15.722 -28.105,15.723 -28.08,15.723C-28.048,15.723 -28.021,15.709 -27.989,15.706C-23.541,15.63 -18.879,15.213 -14.023,14.374C-14.27,16.6 -14.535,18.606 -14.813,20.426M-19.542,22.981C-18.955,22.931 -18.368,22.88 -17.777,22.816C-18.033,23.546 -18.221,24.509 -18.402,25.458C-18.489,25.913 -18.595,26.466 -18.699,26.891C-18.883,26.296 -19.157,25.145 -19.542,22.981M-17.896,33.073C-20.327,31.413 -22.123,25.427 -22.78,23.2C-22.036,23.163 -21.293,23.132 -20.541,23.075C-19.65,28.137 -19.24,28.422 -18.674,28.429C-18.67,28.43 -18.667,28.43 -18.664,28.43C-17.953,28.43 -17.774,27.497 -17.42,25.645C-17.223,24.614 -16.957,23.24 -16.635,22.688C-16.141,22.628 -15.642,22.557 -15.145,22.489C-16.004,27.502 -16.964,30.848 -17.896,33.073M-20.1,-22.025C-20.116,-22.019 -20.133,-22.019 -20.148,-22.011C-20.396,-21.888 -20.496,-21.587 -20.373,-21.34C-20.166,-20.927 -20.061,-20.637 -20.062,-20.459L-20.161,-19.651C-20.328,-18.316 -20.485,-17.056 -20.485,-15.812C-20.485,-13.726 -19.756,-11.675 -18.997,-10.561C-19.881,-10.445 -20.748,-10.363 -21.615,-10.279C-22.332,-11.717 -23.057,-13.312 -23.057,-14.949C-23.057,-15.654 -22.84,-16.608 -22.588,-17.712C-22.242,-19.236 -21.85,-20.961 -21.85,-22.748C-21.85,-23.063 -21.879,-23.371 -21.903,-23.681C-21.322,-23.852 -20.748,-24.05 -20.191,-24.306C-20.242,-23.507 -20.205,-22.749 -20.1,-22.025M-57.041,-35.609C-58.024,-33.359 -58.275,-30.835 -58.424,-28.597C-58.523,-27.112 -59.369,-25.777 -60.186,-24.485C-61.025,-23.161 -61.817,-21.911 -61.817,-20.534C-61.817,-19.806 -61.658,-19.107 -61.504,-18.431C-61.426,-18.093 -61.354,-17.765 -61.299,-17.44C-62.577,-18.07 -63.783,-18.708 -64.92,-19.347L-60.076,-34.589C-59.11,-35.095 -58.107,-35.484 -57.041,-35.609M3.164,-37.941C3.164,-45.83 -6.56,-57.536 -18.068,-60.402C-19.223,-68.443 -25.999,-74.42 -34.115,-74.42C-38.168,-74.42 -41.323,-73.122 -43.955,-70.353C-45.994,-72.345 -48.491,-73.354 -51.393,-73.354C-58.77,-73.354 -65.408,-68.315 -66.709,-61.929C-67.058,-61.96 -67.405,-61.975 -67.749,-61.975C-73.732,-61.975 -78.074,-57.523 -78.074,-51.389C-78.074,-50.943 -78.052,-50.492 -78.006,-50.044C-80.261,-48.897 -81.49,-46.778 -81.49,-43.998C-81.49,-41.323 -79.678,-37.673 -76.835,-34.876C-76.879,-34.759 -76.922,-34.646 -76.966,-34.527C-80.64,-38.891 -92.508,-52.255 -100.453,-52.695C-102.291,-52.796 -103.837,-52.234 -105.049,-51.022C-109.512,-46.559 -107.645,-37.4 -105.839,-28.54C-104.51,-22.019 -103.135,-15.275 -105.135,-12.675C-106.796,-10.515 -108.485,-9.175 -109.977,-7.992C-112.803,-5.751 -115.035,-3.982 -112.752,1.023C-111.998,2.675 -111.095,3.617 -109.988,3.903C-108.34,4.33 -106.778,3.172 -105.268,2.055C-103.733,0.919 -102.145,-0.255 -100.596,0.153C-96.776,1.157 -91.626,7.03 -90.337,8.557C-91.903,16.077 -92.443,22.323 -90.994,25.365C-87.402,32.911 -60.217,40.303 -40.104,41.395C-38.548,41.479 -36.917,41.532 -35.27,41.532C-27.729,41.532 -19.843,40.428 -17.24,36.21C-15.489,33.372 -14.059,28.476 -12.955,21.565C-12.954,21.563 -12.954,21.559 -12.953,21.557C-11.56,12.827 -10.688,0.874 -10.347,-14.206C-2.189,-15.589 2.658,-20.907 2.658,-28.592C2.658,-30.613 2.459,-32.081 2.016,-33.251C2.722,-34.617 3.164,-36.399 3.164,-37.941" style="fill:rgb(104,39,0);fill-rule:nonzero;"/>
        </g>
        <g transform="matrix(1,0,0,1,116.675,37.7734)">
            <path d="M0,5.544L-0.082,5.544C-0.809,5.544 -1.485,5.257 -1.988,4.735C-2.528,4.174 -2.809,3.392 -2.775,2.531C-2.736,1.509 -2.237,0.671 -1.437,0.291C-1.04,0.101 -0.601,0 -0.152,0C0.532,0.003 1.115,0.247 1.58,0.73C2.124,1.294 2.446,2.151 2.42,2.966C2.372,4.419 1.354,5.504 0,5.544M-0.168,-2C-0.898,-2 -1.635,-1.832 -2.299,-1.515C-3.781,-0.809 -4.707,0.675 -4.774,2.456C-4.827,3.864 -4.35,5.166 -3.429,6.122C-2.546,7.04 -1.357,7.544 -0.082,7.544L0.059,7.542C2.463,7.472 4.337,5.532 4.418,3.03C4.463,1.675 3.939,0.296 3.02,-0.659C2.177,-1.532 1.082,-1.996 -0.168,-2" style="fill:rgb(104,39,0);fill-rule:nonzero;"/>
        </g>
        <g transform="matrix(1,0,0,1,142.761,39.9039)">
            <path d="M0,1.974C-0.153,2.786 -0.791,3.374 -1.586,3.437C-2.24,3.488 -2.93,3.222 -3.391,2.749C-3.834,2.294 -4.059,1.66 -4.039,0.915C-4.027,0.449 -3.895,-0.073 -3.649,-0.635C-3.547,-0.868 -3.343,-1.186 -2.752,-1.27C-2.637,-1.287 -2.523,-1.296 -2.412,-1.296C-1.721,-1.296 -1.08,-0.981 -0.609,-0.413C-0.068,0.24 0.159,1.132 0,1.974M-3.035,-3.251C-4.169,-3.088 -5.037,-2.446 -5.48,-1.44C-5.832,-0.639 -6.02,0.135 -6.039,0.864C-6.072,2.16 -5.651,3.294 -4.822,4.145C-4.018,4.97 -2.896,5.443 -1.746,5.443L-1.745,5.443C-1.639,5.443 -1.533,5.439 -1.429,5.431C0.278,5.295 1.642,4.055 1.965,2.345C2.233,0.925 1.847,-0.583 0.931,-1.688C-0.05,-2.872 -1.499,-3.469 -3.035,-3.251" style="fill:rgb(104,39,0);fill-rule:nonzero;"/>
        </g>
        <g transform="matrix(1,0,0,1,158.981,42.6467)">
            <path d="M0,-0.425C0.037,-0.976 -0.38,-1.452 -0.932,-1.489C-1.477,-1.54 -1.959,-1.109 -1.995,-0.558C-2.131,1.481 -4.707,1.541 -5,1.541C-6.694,1.541 -7.184,1.027 -7.184,-0.75C-7.184,-1.345 -7.012,-1.782 -6.656,-2.087C-6.237,-2.446 -6.188,-3.078 -6.548,-3.497C-6.907,-3.916 -7.539,-3.966 -7.958,-3.607C-8.761,-2.918 -9.184,-1.931 -9.184,-0.75C-9.184,2.138 -7.816,3.541 -5,3.541C-2.643,3.541 -0.182,2.315 0,-0.425" style="fill:rgb(104,39,0);fill-rule:nonzero;"/>
        </g>
        <g transform="matrix(1,0,0,1,156.559,63.4419)">
            <path d="M0,-7.23C-2.846,-7.23 -3.27,-5.267 -3.27,-4.097C-3.27,-3.566 -3.167,-3.043 -2.97,-2.583C-2.753,-2.076 -2.165,-1.84 -1.657,-2.056C-1.149,-2.275 -0.914,-2.862 -1.132,-3.37C-1.222,-3.58 -1.27,-3.837 -1.27,-4.097C-1.27,-4.933 -1.079,-5.23 0,-5.23C1.262,-5.23 2.108,-4.659 2.108,-3.808C2.108,-3.098 1.54,-2.257 0.814,-1.895C0.32,-1.648 0.12,-1.046 0.367,-0.553C0.543,-0.203 0.896,0 1.263,-0.001C1.413,-0.001 1.565,-0.035 1.709,-0.106C3.122,-0.813 4.108,-2.336 4.108,-3.808C4.108,-5.79 2.381,-7.23 0,-7.23" style="fill:rgb(104,39,0);fill-rule:nonzero;"/>
        </g>
        <g transform="matrix(1,0,0,1,137.657,25.017)">
            <path d="M0,1.732C0.523,1.556 0.807,0.99 0.633,0.466L0.521,0.127C0.057,-1.311 -0.721,-3.717 -2.865,-3.717C-4.975,-3.717 -7.205,-1.265 -7.205,1.053C-7.205,3.178 -5.488,4.695 -4.749,5.25C-4.569,5.384 -4.359,5.449 -4.15,5.449C-3.846,5.449 -3.546,5.31 -3.35,5.048C-3.018,4.607 -3.107,3.98 -3.55,3.648C-4.586,2.872 -5.205,1.902 -5.205,1.053C-5.205,-0.205 -3.768,-1.717 -2.865,-1.717C-2.176,-1.717 -1.679,-0.178 -1.382,0.742L-1.266,1.099C-1.09,1.623 -0.522,1.908 0,1.732" style="fill:rgb(104,39,0);fill-rule:nonzero;"/>
        </g>
        <g transform="matrix(1,0,0,1,131.293,43.0728)">
            <path d="M0,-1.398C-1.017,-2.984 -2.28,-4.958 -4.27,-4.958C-5.77,-4.958 -7.86,-3.574 -7.86,-1.317C-7.86,0.442 -6.595,2.393 -4.781,3.428C-4.624,3.518 -4.454,3.56 -4.286,3.56C-3.938,3.56 -3.602,3.379 -3.417,3.056C-3.143,2.577 -3.31,1.965 -3.789,1.692C-4.97,1.017 -5.86,-0.277 -5.86,-1.317C-5.86,-2.4 -4.746,-2.958 -4.27,-2.958C-3.375,-2.958 -2.438,-1.496 -1.685,-0.32C-1.424,0.086 -1.173,0.477 -0.928,0.815C-0.603,1.262 0.022,1.362 0.47,1.036C0.916,0.711 1.015,0.086 0.69,-0.361C0.466,-0.669 0.237,-1.027 0,-1.398" style="fill:rgb(104,39,0);fill-rule:nonzero;"/>
        </g>
        <g transform="matrix(1,0,0,1,108.505,31.5436)">
            <path d="M0,-8.487C-0.41,-8.118 -0.443,-7.486 -0.074,-7.075C0.802,-6.101 1.304,-4.98 1.304,-3.999C1.304,-2.858 0.614,-1.63 -0.899,-1.63C-2.285,-1.63 -2.916,-2.636 -2.916,-3.572C-2.916,-4.061 -2.734,-4.543 -2.405,-4.927C-2.045,-5.345 -2.094,-5.977 -2.513,-6.337C-2.932,-6.697 -3.563,-6.648 -3.923,-6.228C-4.563,-5.482 -4.916,-4.539 -4.916,-3.572C-4.916,-1.325 -3.189,0.37 -0.899,0.37C1.497,0.37 3.304,-1.508 3.304,-3.999C3.304,-5.49 2.632,-7.058 1.413,-8.413C1.043,-8.823 0.411,-8.857 0,-8.487" style="fill:rgb(104,39,0);fill-rule:nonzero;"/>
        </g>
        <g transform="matrix(1,0,0,1,100.514,42.3876)">
            <path d="M0,-7.994C-0.408,-8.365 -1.04,-8.336 -1.413,-7.928C-1.784,-7.519 -1.754,-6.887 -1.346,-6.516C-0.413,-5.667 0.167,-4.564 0.167,-3.637C0.167,-2.555 -0.761,-1.629 -1.52,-1.629C-2.735,-1.629 -3.724,-3.144 -3.724,-4.132C-3.724,-4.324 -3.687,-4.49 -3.611,-4.641C-3.364,-5.135 -3.564,-5.735 -4.059,-5.982C-4.553,-6.228 -5.153,-6.029 -5.4,-5.535C-5.614,-5.106 -5.724,-4.635 -5.724,-4.132C-5.724,-2.049 -3.887,0.371 -1.52,0.371C0.444,0.371 2.167,-1.502 2.167,-3.637C2.167,-5.132 1.356,-6.762 0,-7.994" style="fill:rgb(104,39,0);fill-rule:nonzero;"/>
        </g>
    </g>
</svg>
